
<svg xmlns="http://www.w3.org/2000/svg" xmlns:xlink="http://www.w3.org/1999/xlink" width="400" zoomAndPan="magnify" viewBox="0 0 300 149.999998" height="200" preserveAspectRatio="xMidYMid meet" version="1.0"><defs><g/><clipPath id="a6d6203c86"><path d="M 59.472656 18.609375 L 232.769531 18.609375 L 232.769531 72.394531 L 59.472656 72.394531 Z M 59.472656 18.609375 " clip-rule="nonzero"/></clipPath><clipPath id="5acdcf69ab"><path d="M 81 53 L 107 53 L 107 78.609375 L 81 78.609375 Z M 81 53 " clip-rule="nonzero"/></clipPath><clipPath id="212ce12149"><path d="M 185 53 L 211 53 L 211 78.609375 L 185 78.609375 Z M 185 53 " clip-rule="nonzero"/></clipPath></defs><g fill="#000000" fill-opacity="1"><g transform="translate(14.360723, 120.480774)"><g><path d="M 10.671875 -15.15625 C 10.191406 -15.15625 9.140625 -15.269531 7.515625 -15.5 C 7.378906 -12.894531 7.3125 -8.335938 7.3125 -1.828125 C 7.3125 -1.140625 7.085938 -0.554688 6.640625 -0.078125 C 6.191406 0.390625 5.628906 0.625 4.953125 0.625 C 4.265625 0.625 3.695312 0.390625 3.25 -0.078125 C 2.800781 -0.554688 2.578125 -1.140625 2.578125 -1.828125 L 2.578125 -9.421875 C 2.578125 -11.960938 2.734375 -15.53125 3.046875 -20.125 C 3.390625 -25.101562 3.578125 -28.664062 3.609375 -30.8125 L 3.609375 -34.390625 C 3.609375 -36.085938 3.710938 -37.328125 3.921875 -38.109375 C 4.316406 -39.617188 5.160156 -40.269531 6.453125 -40.0625 C 7.003906 -40.238281 7.785156 -40.367188 8.796875 -40.453125 C 9.816406 -40.535156 11.070312 -40.578125 12.5625 -40.578125 C 15.707031 -40.578125 18.660156 -39.503906 21.421875 -37.359375 C 24.453125 -34.984375 25.96875 -32.125 25.96875 -28.78125 C 25.96875 -24.507812 24.347656 -21.109375 21.109375 -18.578125 C 18.210938 -16.296875 14.734375 -15.15625 10.671875 -15.15625 Z M 11.953125 -35.671875 C 11.203125 -35.671875 10.53125 -35.65625 9.9375 -35.625 C 9.34375 -35.59375 8.835938 -35.539062 8.421875 -35.46875 L 8.375 -30.71875 L 7.828125 -20.4375 L 10.671875 -20.09375 C 13.566406 -20.09375 16.003906 -20.828125 17.984375 -22.296875 C 20.148438 -23.898438 21.234375 -26.0625 21.234375 -28.78125 C 21.234375 -30.707031 20.203125 -32.367188 18.140625 -33.765625 C 16.222656 -35.035156 14.160156 -35.671875 11.953125 -35.671875 Z M 11.953125 -35.671875 "/></g></g></g><g fill="#000000" fill-opacity="1"><g transform="translate(41.888358, 120.480774)"><g><path d="M 32.296875 0.78125 C 30.710938 0.78125 29.332031 -1.253906 28.15625 -5.328125 C 27.707031 -6.867188 27.148438 -9.578125 26.484375 -13.453125 C 24.722656 -13.210938 22.421875 -12.785156 19.578125 -12.171875 L 12.703125 -10.75 C 11.847656 -8.488281 10.378906 -5.191406 8.296875 -0.859375 C 7.742188 0.109375 6.992188 0.59375 6.046875 0.59375 C 5.359375 0.59375 4.742188 0.34375 4.203125 -0.15625 C 3.660156 -0.65625 3.390625 -1.273438 3.390625 -2.015625 C 3.390625 -2.835938 4.6875 -5.976562 7.28125 -11.4375 C 6.988281 -11.882812 6.84375 -12.40625 6.84375 -13 C 6.84375 -14.394531 7.6875 -15.289062 9.375 -15.6875 C 11.34375 -19.363281 13.820312 -23.597656 16.8125 -28.390625 C 20.894531 -34.921875 23.4375 -38.1875 24.4375 -38.1875 C 25.800781 -38.1875 26.734375 -37.238281 27.234375 -35.34375 L 28.859375 -26.65625 L 32.703125 -8.703125 L 34.171875 -4.625 C 34.671875 -3.226562 34.921875 -2.296875 34.921875 -1.828125 C 34.921875 -1.085938 34.65625 -0.46875 34.125 0.03125 C 33.59375 0.53125 32.984375 0.78125 32.296875 0.78125 Z M 23.171875 -28.75 L 15.78125 -16.84375 C 17.863281 -17.375 21.023438 -18.019531 25.265625 -18.78125 Z M 23.171875 -28.75 "/></g></g></g><g fill="#000000" fill-opacity="1"><g transform="translate(80.571657, 120.480774)"><g><path d="M 29.09375 0.28125 C 28.4375 0.28125 27.820312 0.00390625 27.25 -0.546875 C 21.550781 -6.171875 15.210938 -9.957031 8.234375 -11.90625 L 8.453125 -6.84375 L 8.578125 -1.75 C 8.578125 -1 8.332031 -0.367188 7.84375 0.140625 C 7.351562 0.648438 6.738281 0.90625 6 0.90625 C 5.25 0.90625 4.628906 0.648438 4.140625 0.140625 C 3.648438 -0.367188 3.40625 -1 3.40625 -1.75 C 3.40625 -3.113281 3.335938 -5.144531 3.203125 -7.84375 C 3.078125 -10.539062 3.015625 -12.566406 3.015625 -13.921875 C 3.015625 -15.503906 3.1875 -17.863281 3.53125 -21 C 3.882812 -24.132812 4.0625 -26.488281 4.0625 -28.0625 C 4.0625 -28.9375 3.976562 -30.234375 3.8125 -31.953125 C 3.644531 -33.671875 3.5625 -34.972656 3.5625 -35.859375 C 3.5625 -36.835938 3.835938 -37.695312 4.390625 -38.4375 C 5.046875 -39.351562 5.953125 -39.769531 7.109375 -39.6875 L 13.328125 -39.1875 C 15.691406 -38.894531 17.679688 -38.316406 19.296875 -37.453125 C 26.273438 -33.753906 29.765625 -29.234375 29.765625 -23.890625 C 29.765625 -21.273438 28.570312 -18.960938 26.1875 -16.953125 C 24.28125 -15.328125 21.894531 -14.09375 19.03125 -13.25 C 24.394531 -10.375 28.398438 -7.34375 31.046875 -4.15625 C 31.492188 -3.601562 31.71875 -3.019531 31.71875 -2.40625 C 31.71875 -1.675781 31.453125 -1.046875 30.921875 -0.515625 C 30.398438 0.015625 29.789062 0.28125 29.09375 0.28125 Z M 12.625 -33.875 L 8.8125 -34.171875 L 9.0625 -31.046875 C 9.1875 -29.773438 9.25 -28.734375 9.25 -27.921875 C 9.25 -26.546875 9.132812 -24.832031 8.90625 -22.78125 L 8.375 -17.640625 C 8.613281 -17.640625 8.984375 -17.628906 9.484375 -17.609375 C 9.992188 -17.597656 10.378906 -17.59375 10.640625 -17.59375 C 15.035156 -17.59375 18.328125 -18.175781 20.515625 -19.34375 C 21.472656 -19.882812 22.367188 -20.582031 23.203125 -21.4375 C 24.109375 -22.40625 24.5625 -23.222656 24.5625 -23.890625 C 24.5625 -26.285156 23.203125 -28.519531 20.484375 -30.59375 C 17.984375 -32.476562 15.363281 -33.570312 12.625 -33.875 Z M 12.625 -33.875 "/></g></g></g><g fill="#000000" fill-opacity="1"><g transform="translate(113.806242, 120.480774)"><g><path d="M 29.78125 1.0625 C 27.164062 1.0625 23.4375 -1.238281 18.59375 -5.84375 L 10.875 -13.609375 L 10.875 -13.25 L 10.84375 0.28125 C 10.84375 1.988281 10.097656 2.84375 8.609375 2.84375 C 7.617188 2.84375 6.832031 2.410156 6.25 1.546875 C 5.769531 0.835938 5.53125 0.0703125 5.53125 -0.75 C 5.53125 -4.78125 5.648438 -10.804688 5.890625 -18.828125 C 6.128906 -26.859375 6.25 -32.878906 6.25 -36.890625 C 6.25 -37.628906 6.492188 -38.253906 6.984375 -38.765625 C 7.472656 -39.285156 8.082031 -39.546875 8.8125 -39.546875 C 9.550781 -39.546875 10.164062 -39.285156 10.65625 -38.765625 C 11.144531 -38.253906 11.390625 -37.628906 11.390625 -36.890625 C 11.390625 -35.222656 11.285156 -32.625 11.078125 -29.09375 C 10.867188 -25.675781 10.773438 -23.066406 10.796875 -21.265625 C 13.109375 -23.453125 15.71875 -26.195312 18.625 -29.5 L 26.046875 -38.109375 C 26.628906 -38.773438 27.28125 -39.109375 28 -39.109375 C 28.6875 -39.109375 29.296875 -38.847656 29.828125 -38.328125 C 30.367188 -37.816406 30.640625 -37.191406 30.640625 -36.453125 C 30.640625 -35.316406 28.414062 -32.285156 23.96875 -27.359375 C 20.90625 -23.992188 17.738281 -20.703125 14.46875 -17.484375 C 16.53125 -15.316406 19.769531 -12.203125 24.1875 -8.140625 L 26.890625 -5.859375 C 27.867188 -5.109375 28.925781 -4.539062 30.0625 -4.15625 C 31.425781 -3.707031 32.109375 -2.859375 32.109375 -1.609375 C 32.109375 -1.015625 31.925781 -0.453125 31.5625 0.078125 C 31.113281 0.734375 30.519531 1.0625 29.78125 1.0625 Z M 29.78125 1.0625 "/></g></g></g><g fill="#ff3131" fill-opacity="1"><g transform="translate(148.570821, 120.03872)"><g><path d="M 12.515625 -9.109375 L 13.546875 -11.78125 L 15.96875 -17.734375 L 24.578125 -37.59375 L 33.21875 -37.59375 L 33.21875 -17.21875 C 33.21875 -14.550781 32.992188 -11.847656 32.546875 -9.109375 C 32.722656 -9.585938 33.863281 -12.550781 35.96875 -18 L 43.765625 -37.59375 L 53.703125 -37.59375 L 37.390625 0 L 25.53125 0 L 25.53125 -15.9375 C 25.53125 -18.59375 25.640625 -21.367188 25.859375 -24.265625 C 25.296875 -21.992188 24.285156 -19.003906 22.828125 -15.296875 L 16.328125 0 L 5.171875 0 L 3.90625 -37.59375 L 13.421875 -37.59375 L 13.171875 -18.75 C 13.066406 -14.164062 12.847656 -10.953125 12.515625 -9.109375 Z M 12.515625 -9.109375 "/></g></g></g><g fill="#ff3131" fill-opacity="1"><g transform="translate(197.804645, 120.03872)"><g><path d="M 23.171875 0 L 0.84375 0 L 8.796875 -37.59375 L 31.109375 -37.59375 L 29.4375 -29.4375 L 17.171875 -29.4375 L 15.96875 -23.53125 L 27.375 -23.53125 L 25.53125 -15.375 L 14.109375 -15.375 L 12.65625 -8.28125 L 24.90625 -8.28125 Z M 23.171875 0 "/></g></g></g><g fill="#ff3131" fill-opacity="1"><g transform="translate(227.396362, 120.03872)"><g><path d="M 0.84375 0 L 8.796875 -37.59375 L 18.84375 -37.59375 L 12.65625 -8.203125 L 24.90625 -8.203125 L 23.171875 0 Z M 0.84375 0 "/></g></g></g><g fill="#ff3131" fill-opacity="1"><g transform="translate(255.136991, 120.03872)"><g><path d="M 0.84375 0 L 8.796875 -37.59375 L 18.84375 -37.59375 L 12.65625 -8.203125 L 24.90625 -8.203125 L 23.171875 0 Z M 0.84375 0 "/></g></g></g><g clip-path="url(#a6d6203c86)"><path fill="#ff3131" d="M 174.691406 39.1875 L 139.457031 39.1875 C 138.910156 39.1875 138.464844 38.742188 138.464844 38.191406 L 138.464844 24.152344 C 138.464844 23.589844 138.929688 23.140625 139.488281 23.15625 C 148.421875 23.453125 157.316406 25.148438 164.875 30.226562 C 168.539062 32.691406 171.550781 35.910156 174.820312 38.851562 C 174.949219 38.96875 174.867188 39.1875 174.691406 39.1875 Z M 133.308594 38.191406 C 133.308594 38.742188 132.863281 39.1875 132.316406 39.1875 C 128.15625 39.1875 124.539062 39.183594 120.289062 39.1875 C 116.890625 39.1875 113.488281 39.164062 110.09375 38.933594 C 106.921875 38.714844 103.488281 38.535156 100.609375 37.046875 C 99.324219 36.378906 98.113281 35 99.246094 33.628906 C 99.257812 33.613281 99.269531 33.601562 99.28125 33.589844 C 107.820312 24.410156 120.523438 23.511719 132.285156 23.179688 C 132.847656 23.167969 133.308594 23.617188 133.308594 24.175781 Z M 232.71875 57.273438 C 232.679688 56.742188 232.238281 56.328125 231.707031 56.320312 C 231.25 56.316406 230.875 55.96875 230.875 55.511719 L 230.875 54.703125 C 230.875 51.371094 229.859375 49.933594 229.640625 49.664062 C 229.601562 49.617188 229.570312 49.570312 229.535156 49.519531 C 225.050781 43.097656 189.09375 37.480469 184.03125 36.71875 C 183.640625 36.660156 183.265625 36.523438 182.929688 36.3125 C 178.054688 33.253906 173.339844 29.359375 168.582031 26.128906 C 164.214844 23.167969 158.414062 20.964844 153.199219 20.058594 C 145.363281 18.695312 137.378906 18.480469 129.441406 18.671875 C 121.609375 18.855469 113.730469 18.914062 106.058594 20.6875 C 98.847656 22.351562 92.371094 26.246094 85.734375 29.453125 C 83.796875 30.390625 81.878906 31.363281 79.976562 32.363281 C 78.625 33.074219 77.28125 33.800781 75.953125 34.554688 C 75.601562 34.757812 75.203125 34.863281 74.792969 34.863281 L 67.976562 34.863281 C 60.402344 34.863281 61.078125 48.972656 61.449219 53.199219 C 61.515625 53.949219 61.234375 54.679688 60.6875 55.195312 C 59.835938 55.980469 59.390625 57.113281 59.484375 58.269531 C 60.695312 73.214844 76.269531 72.382812 78.332031 72.203125 C 77.585938 70.304688 77.210938 68.300781 77.210938 66.242188 C 77.210938 64.039062 77.640625 61.898438 78.492188 59.882812 C 79.316406 57.941406 80.492188 56.195312 81.992188 54.695312 C 83.492188 53.199219 85.234375 52.019531 87.179688 51.199219 C 89.195312 50.347656 91.332031 49.914062 93.535156 49.914062 C 95.738281 49.914062 97.878906 50.347656 99.890625 51.199219 C 101.835938 52.019531 103.582031 53.199219 105.082031 54.695312 C 106.578125 56.195312 107.757812 57.941406 108.578125 59.882812 C 109.429688 61.898438 109.863281 64.039062 109.863281 66.242188 C 109.863281 68.300781 109.484375 70.304688 108.738281 72.203125 L 183.039062 72.25 C 182.277344 70.335938 181.894531 68.316406 181.894531 66.242188 C 181.894531 64.039062 182.328125 61.898438 183.179688 59.882812 C 184.003906 57.941406 185.179688 56.195312 186.675781 54.695312 C 188.175781 53.199219 189.921875 52.019531 191.867188 51.199219 C 193.878906 50.347656 196.019531 49.914062 198.222656 49.914062 C 200.425781 49.914062 202.5625 50.347656 204.578125 51.199219 C 206.523438 52.019531 208.269531 53.199219 209.765625 54.695312 C 211.265625 56.195312 212.441406 57.941406 213.265625 59.882812 C 214.117188 61.898438 214.546875 64.039062 214.546875 66.242188 C 214.546875 68.324219 214.160156 70.351562 213.398438 72.269531 L 221.199219 72.273438 C 226.125 72.273438 228.375 70.074219 228.789062 69.613281 C 228.863281 69.53125 228.941406 69.453125 229.015625 69.371094 C 232.871094 65.367188 232.882812 59.539062 232.71875 57.273438 " fill-opacity="1" fill-rule="nonzero"/></g><g clip-path="url(#5acdcf69ab)"><path fill="#ff3131" d="M 93.535156 53.71875 C 86.621094 53.71875 81.015625 59.324219 81.015625 66.242188 C 81.015625 73.144531 86.632812 78.761719 93.535156 78.761719 C 100.453125 78.761719 106.058594 73.15625 106.058594 66.242188 C 106.058594 59.335938 100.441406 53.71875 93.535156 53.71875 " fill-opacity="1" fill-rule="nonzero"/></g><g clip-path="url(#212ce12149)"><path fill="#ff3131" d="M 198.222656 53.71875 C 191.308594 53.71875 185.699219 59.324219 185.699219 66.242188 C 185.699219 73.144531 191.316406 78.761719 198.222656 78.761719 C 205.136719 78.761719 210.742188 73.15625 210.742188 66.242188 C 210.742188 59.335938 205.125 53.71875 198.222656 53.71875 " fill-opacity="1" fill-rule="nonzero"/></g></svg>