
<svg xmlns="http://www.w3.org/2000/svg" xmlns:xlink="http://www.w3.org/1999/xlink" width="400" zoomAndPan="magnify" viewBox="0 0 300 149.999998" height="200" preserveAspectRatio="xMidYMid meet" version="1.0"><defs><g/><clipPath id="d3cbed50f3"><path d="M 15.085938 57.601562 L 87.75 57.601562 L 87.75 80.171875 L 15.085938 80.171875 Z M 15.085938 57.601562 " clip-rule="nonzero"/></clipPath></defs><g fill="#000000" fill-opacity="1"><g transform="translate(89.455436, 84.954389)"><g><path d="M 7.4375 -10.5625 C 7.09375 -10.5625 6.359375 -10.640625 5.234375 -10.796875 C 5.140625 -8.984375 5.09375 -5.8125 5.09375 -1.28125 C 5.09375 -0.800781 4.9375 -0.394531 4.625 -0.0625 C 4.3125 0.269531 3.921875 0.4375 3.453125 0.4375 C 2.972656 0.4375 2.578125 0.269531 2.265625 -0.0625 C 1.953125 -0.394531 1.796875 -0.800781 1.796875 -1.28125 L 1.796875 -6.5625 C 1.796875 -8.332031 1.90625 -10.816406 2.125 -14.015625 C 2.363281 -17.484375 2.492188 -19.96875 2.515625 -21.46875 L 2.515625 -23.953125 C 2.515625 -25.140625 2.585938 -26.003906 2.734375 -26.546875 C 3.015625 -27.597656 3.601562 -28.054688 4.5 -27.921875 C 4.882812 -28.035156 5.429688 -28.125 6.140625 -28.1875 C 6.847656 -28.25 7.71875 -28.28125 8.75 -28.28125 C 10.945312 -28.28125 13.003906 -27.53125 14.921875 -26.03125 C 17.035156 -24.375 18.09375 -22.378906 18.09375 -20.046875 C 18.09375 -17.078125 16.960938 -14.707031 14.703125 -12.9375 C 12.691406 -11.351562 10.269531 -10.5625 7.4375 -10.5625 Z M 8.328125 -24.859375 C 7.804688 -24.859375 7.335938 -24.84375 6.921875 -24.8125 C 6.503906 -24.789062 6.15625 -24.753906 5.875 -24.703125 L 5.828125 -21.40625 L 5.453125 -14.234375 L 7.4375 -14 C 9.445312 -14 11.144531 -14.507812 12.53125 -15.53125 C 14.039062 -16.644531 14.796875 -18.148438 14.796875 -20.046875 C 14.796875 -21.390625 14.078125 -22.546875 12.640625 -23.515625 C 11.304688 -24.410156 9.867188 -24.859375 8.328125 -24.859375 Z M 8.328125 -24.859375 "/></g></g></g><g fill="#000000" fill-opacity="1"><g transform="translate(108.636788, 84.954389)"><g><path d="M 22.5 0.546875 C 21.394531 0.546875 20.4375 -0.867188 19.625 -3.703125 C 19.3125 -4.785156 18.921875 -6.675781 18.453125 -9.375 C 17.222656 -9.207031 15.617188 -8.910156 13.640625 -8.484375 L 8.859375 -7.484375 C 8.253906 -5.910156 7.226562 -3.613281 5.78125 -0.59375 C 5.394531 0.0703125 4.875 0.40625 4.21875 0.40625 C 3.726562 0.40625 3.296875 0.234375 2.921875 -0.109375 C 2.546875 -0.453125 2.359375 -0.882812 2.359375 -1.40625 C 2.359375 -1.976562 3.265625 -4.164062 5.078125 -7.96875 C 4.867188 -8.28125 4.765625 -8.640625 4.765625 -9.046875 C 4.765625 -10.023438 5.351562 -10.648438 6.53125 -10.921875 C 7.894531 -13.492188 9.625 -16.445312 11.71875 -19.78125 C 14.5625 -24.320312 16.332031 -26.59375 17.03125 -26.59375 C 17.976562 -26.59375 18.625 -25.9375 18.96875 -24.625 L 20.109375 -18.578125 L 22.78125 -6.0625 L 23.8125 -3.21875 C 24.15625 -2.25 24.328125 -1.601562 24.328125 -1.28125 C 24.328125 -0.757812 24.140625 -0.328125 23.765625 0.015625 C 23.398438 0.367188 22.976562 0.546875 22.5 0.546875 Z M 16.140625 -20.03125 L 11 -11.734375 C 12.445312 -12.109375 14.648438 -12.554688 17.609375 -13.078125 Z M 16.140625 -20.03125 "/></g></g></g><g fill="#000000" fill-opacity="1"><g transform="translate(135.591444, 84.954389)"><g><path d="M 20.265625 0.203125 C 19.804688 0.203125 19.378906 0.0078125 18.984375 -0.375 C 15.015625 -4.300781 10.597656 -6.941406 5.734375 -8.296875 L 5.890625 -4.765625 L 5.96875 -1.21875 C 5.96875 -0.695312 5.796875 -0.257812 5.453125 0.09375 C 5.117188 0.445312 4.691406 0.625 4.171875 0.625 C 3.660156 0.625 3.234375 0.445312 2.890625 0.09375 C 2.546875 -0.257812 2.375 -0.695312 2.375 -1.21875 C 2.375 -2.164062 2.328125 -3.578125 2.234375 -5.453125 C 2.148438 -7.335938 2.109375 -8.753906 2.109375 -9.703125 C 2.109375 -10.804688 2.226562 -12.445312 2.46875 -14.625 C 2.707031 -16.8125 2.828125 -18.453125 2.828125 -19.546875 C 2.828125 -20.160156 2.769531 -21.066406 2.65625 -22.265625 C 2.539062 -23.460938 2.484375 -24.367188 2.484375 -24.984375 C 2.484375 -25.660156 2.675781 -26.257812 3.0625 -26.78125 C 3.519531 -27.414062 4.148438 -27.703125 4.953125 -27.640625 L 9.28125 -27.296875 C 10.925781 -27.097656 12.3125 -26.695312 13.4375 -26.09375 C 18.300781 -23.519531 20.734375 -20.367188 20.734375 -16.640625 C 20.734375 -14.816406 19.90625 -13.207031 18.25 -11.8125 C 16.914062 -10.675781 15.253906 -9.816406 13.265625 -9.234375 C 16.992188 -7.234375 19.785156 -5.117188 21.640625 -2.890625 C 21.941406 -2.515625 22.09375 -2.109375 22.09375 -1.671875 C 22.09375 -1.171875 21.910156 -0.734375 21.546875 -0.359375 C 21.179688 0.015625 20.753906 0.203125 20.265625 0.203125 Z M 8.796875 -23.59375 L 6.140625 -23.8125 L 6.3125 -21.640625 C 6.394531 -20.742188 6.4375 -20.015625 6.4375 -19.453125 C 6.4375 -18.492188 6.359375 -17.300781 6.203125 -15.875 L 5.828125 -12.296875 C 5.992188 -12.296875 6.253906 -12.285156 6.609375 -12.265625 C 6.960938 -12.253906 7.234375 -12.25 7.421875 -12.25 C 10.472656 -12.25 12.765625 -12.660156 14.296875 -13.484375 C 14.960938 -13.847656 15.582031 -14.332031 16.15625 -14.9375 C 16.789062 -15.613281 17.109375 -16.179688 17.109375 -16.640625 C 17.109375 -18.316406 16.160156 -19.875 14.265625 -21.3125 C 12.523438 -22.632812 10.703125 -23.394531 8.796875 -23.59375 Z M 8.796875 -23.59375 "/></g></g></g><g fill="#000000" fill-opacity="1"><g transform="translate(158.749417, 84.954389)"><g><path d="M 20.75 0.734375 C 18.925781 0.734375 16.328125 -0.863281 12.953125 -4.0625 L 7.578125 -9.484375 L 7.578125 -9.234375 L 7.5625 0.203125 C 7.5625 1.390625 7.039062 1.984375 6 1.984375 C 5.3125 1.984375 4.765625 1.679688 4.359375 1.078125 C 4.015625 0.585938 3.84375 0.0546875 3.84375 -0.515625 C 3.84375 -3.328125 3.925781 -7.523438 4.09375 -13.109375 C 4.269531 -18.703125 4.359375 -22.898438 4.359375 -25.703125 C 4.359375 -26.210938 4.523438 -26.644531 4.859375 -27 C 5.203125 -27.363281 5.628906 -27.546875 6.140625 -27.546875 C 6.648438 -27.546875 7.078125 -27.363281 7.421875 -27 C 7.765625 -26.644531 7.9375 -26.210938 7.9375 -25.703125 C 7.9375 -24.535156 7.863281 -22.722656 7.71875 -20.265625 C 7.570312 -17.890625 7.503906 -16.070312 7.515625 -14.8125 C 9.128906 -16.332031 10.945312 -18.242188 12.96875 -20.546875 L 18.140625 -26.546875 C 18.546875 -27.015625 19.003906 -27.25 19.515625 -27.25 C 19.992188 -27.25 20.414062 -27.066406 20.78125 -26.703125 C 21.15625 -26.347656 21.34375 -25.910156 21.34375 -25.390625 C 21.34375 -24.597656 19.796875 -22.488281 16.703125 -19.0625 C 14.566406 -16.71875 12.359375 -14.425781 10.078125 -12.1875 C 11.515625 -10.675781 13.769531 -8.503906 16.84375 -5.671875 L 18.734375 -4.078125 C 19.421875 -3.554688 20.160156 -3.160156 20.953125 -2.890625 C 21.898438 -2.585938 22.375 -1.992188 22.375 -1.109375 C 22.375 -0.703125 22.25 -0.316406 22 0.046875 C 21.6875 0.503906 21.269531 0.734375 20.75 0.734375 Z M 20.75 0.734375 "/></g></g></g><g fill="#ff3131" fill-opacity="1"><g transform="translate(182.973501, 84.646368)"><g><path d="M 8.71875 -6.34375 L 9.4375 -8.203125 L 11.125 -12.359375 L 17.125 -26.1875 L 23.140625 -26.1875 L 23.140625 -12 C 23.140625 -10.132812 22.984375 -8.25 22.671875 -6.34375 C 22.796875 -6.675781 23.59375 -8.742188 25.0625 -12.546875 L 30.484375 -26.1875 L 37.421875 -26.1875 L 26.046875 0 L 17.78125 0 L 17.78125 -11.109375 C 17.78125 -12.960938 17.859375 -14.894531 18.015625 -16.90625 C 17.628906 -15.320312 16.925781 -13.238281 15.90625 -10.65625 L 11.375 0 L 3.59375 0 L 2.71875 -26.1875 L 9.34375 -26.1875 L 9.171875 -13.0625 C 9.097656 -9.875 8.945312 -7.632812 8.71875 -6.34375 Z M 8.71875 -6.34375 "/></g></g></g><g fill="#ff3131" fill-opacity="1"><g transform="translate(217.279804, 84.646368)"><g><path d="M 16.140625 0 L 0.59375 0 L 6.125 -26.1875 L 21.671875 -26.1875 L 20.515625 -20.515625 L 11.96875 -20.515625 L 11.125 -16.390625 L 19.078125 -16.390625 L 17.78125 -10.71875 L 9.828125 -10.71875 L 8.8125 -5.765625 L 17.359375 -5.765625 Z M 16.140625 0 "/></g></g></g><g fill="#ff3131" fill-opacity="1"><g transform="translate(237.899417, 84.646368)"><g><path d="M 0.59375 0 L 6.125 -26.1875 L 13.125 -26.1875 L 8.8125 -5.71875 L 17.359375 -5.71875 L 16.140625 0 Z M 0.59375 0 "/></g></g></g><g fill="#ff3131" fill-opacity="1"><g transform="translate(257.229186, 84.646368)"><g><path d="M 0.59375 0 L 6.125 -26.1875 L 13.125 -26.1875 L 8.8125 -5.71875 L 17.359375 -5.71875 L 16.140625 0 Z M 0.59375 0 "/></g></g></g><g clip-path="url(#d3cbed50f3)"><path fill="#ff3131" d="M 63.4375 66.234375 L 48.652344 66.234375 C 48.421875 66.234375 48.234375 66.050781 48.234375 65.820312 L 48.234375 59.925781 C 48.234375 59.691406 48.429688 59.503906 48.664062 59.511719 C 52.414062 59.632812 56.148438 60.34375 59.316406 62.476562 C 60.855469 63.511719 62.121094 64.859375 63.492188 66.09375 C 63.546875 66.144531 63.511719 66.234375 63.4375 66.234375 Z M 46.070312 65.820312 C 46.070312 66.050781 45.886719 66.234375 45.65625 66.234375 C 43.910156 66.234375 42.390625 66.234375 40.609375 66.234375 C 39.183594 66.234375 37.753906 66.226562 36.328125 66.128906 C 35 66.039062 33.558594 65.964844 32.351562 65.335938 C 31.808594 65.058594 31.304688 64.480469 31.777344 63.902344 C 31.78125 63.898438 31.789062 63.890625 31.792969 63.886719 C 35.375 60.035156 40.707031 59.65625 45.644531 59.519531 C 45.878906 59.511719 46.070312 59.703125 46.070312 59.9375 Z M 87.789062 73.824219 C 87.769531 73.601562 87.585938 73.429688 87.363281 73.425781 C 87.171875 73.425781 87.015625 73.277344 87.015625 73.085938 L 87.015625 72.746094 C 87.015625 71.351562 86.589844 70.746094 86.496094 70.632812 C 86.480469 70.613281 86.464844 70.59375 86.453125 70.574219 C 84.570312 67.875 69.480469 65.519531 67.359375 65.199219 C 67.195312 65.175781 67.035156 65.117188 66.894531 65.027344 C 64.847656 63.746094 62.871094 62.113281 60.875 60.757812 C 59.042969 59.511719 56.605469 58.589844 54.417969 58.207031 C 51.128906 57.636719 47.78125 57.546875 44.449219 57.625 C 41.164062 57.703125 37.855469 57.730469 34.636719 58.472656 C 31.613281 59.171875 28.894531 60.804688 26.109375 62.152344 C 25.296875 62.542969 24.492188 62.953125 23.691406 63.371094 C 23.125 63.671875 22.5625 63.976562 22.003906 64.292969 C 21.855469 64.378906 21.6875 64.421875 21.515625 64.421875 L 18.65625 64.421875 C 15.476562 64.421875 15.761719 70.34375 15.917969 72.117188 C 15.945312 72.429688 15.828125 72.738281 15.597656 72.953125 C 15.238281 73.285156 15.054688 73.757812 15.09375 74.242188 C 15.601562 80.515625 22.136719 80.164062 23.003906 80.089844 C 22.6875 79.292969 22.53125 78.453125 22.53125 77.589844 C 22.53125 76.664062 22.710938 75.765625 23.070312 74.921875 C 23.414062 74.105469 23.910156 73.375 24.539062 72.746094 C 25.167969 72.117188 25.898438 71.621094 26.714844 71.277344 C 27.558594 70.917969 28.457031 70.738281 29.382812 70.738281 C 30.304688 70.738281 31.203125 70.917969 32.050781 71.277344 C 32.863281 71.621094 33.597656 72.117188 34.226562 72.746094 C 34.855469 73.375 35.347656 74.105469 35.695312 74.921875 C 36.050781 75.765625 36.234375 76.664062 36.234375 77.589844 C 36.234375 78.453125 36.074219 79.292969 35.761719 80.089844 L 66.941406 80.109375 C 66.621094 79.308594 66.460938 78.460938 66.460938 77.589844 C 66.460938 76.664062 66.640625 75.765625 67 74.921875 C 67.34375 74.105469 67.839844 73.375 68.46875 72.746094 C 69.097656 72.117188 69.828125 71.621094 70.644531 71.277344 C 71.492188 70.917969 72.386719 70.738281 73.3125 70.738281 C 74.234375 70.738281 75.132812 70.917969 75.980469 71.277344 C 76.796875 71.621094 77.527344 72.117188 78.15625 72.746094 C 78.785156 73.375 79.28125 74.105469 79.625 74.921875 C 79.980469 75.765625 80.164062 76.664062 80.164062 77.589844 C 80.164062 78.464844 80 79.3125 79.679688 80.117188 L 82.953125 80.121094 C 85.023438 80.121094 85.964844 79.195312 86.140625 79.003906 C 86.171875 78.96875 86.203125 78.9375 86.234375 78.902344 C 87.851562 77.222656 87.855469 74.777344 87.789062 73.824219 " fill-opacity="1" fill-rule="nonzero"/></g><path fill="#ff3131" d="M 29.382812 72.335938 C 26.480469 72.335938 24.128906 74.6875 24.128906 77.589844 C 24.128906 80.484375 26.484375 82.84375 29.382812 82.84375 C 32.285156 82.84375 34.636719 80.492188 34.636719 77.589844 C 34.636719 74.691406 32.277344 72.335938 29.382812 72.335938 " fill-opacity="1" fill-rule="nonzero"/><path fill="#ff3131" d="M 73.3125 72.335938 C 70.410156 72.335938 68.058594 74.6875 68.058594 77.589844 C 68.058594 80.484375 70.414062 82.84375 73.3125 82.84375 C 76.214844 82.84375 78.566406 80.492188 78.566406 77.589844 C 78.566406 74.691406 76.210938 72.335938 73.3125 72.335938 " fill-opacity="1" fill-rule="nonzero"/></svg>